<svg width="298" height="209" viewBox="0 0 298 209" fill="none" xmlns="http://www.w3.org/2000/svg">
<path d="M198.829 88.9521L268.734 92.6108" stroke="#00B11D" stroke-width="30" stroke-linecap="round"/>
<path d="M231.952 125.734L235.611 55.8293" stroke="#00B11D" stroke-width="30" stroke-linecap="round"/>
<path d="M211.669 145.751C211.669 145.751 217.173 144.155 223.036 145.961C228 147.49 229.566 153.533 231.6 158.94M231.6 158.94C233.367 163.635 234.02 166.65 235.199 171.522C231.303 177.273 222.791 180.588 217.426 176.186C214.187 173.528 212.504 167.623 214.28 164.066C217.778 157.06 222.814 157.984 231.6 158.94Z" stroke="#FFC200" stroke-width="10" stroke-linecap="square"/>
<path d="M245.592 140.591C245.592 140.591 246.491 153.233 247.899 161.257C248.6 165.253 250.014 171.449 250.014 171.449" stroke="#FFC200" stroke-width="10" stroke-linecap="square"/>
<circle cx="244.009" cy="127.589" r="6" transform="rotate(1.05497 244.009 127.589)" fill="#FFC200"/>
<path d="M275.57 127.183C275.57 127.183 268.518 126.644 263.094 130.299C259.4 132.787 257.91 142.819 263.625 143.358C269.339 143.897 271.866 142.677 277.229 144.719C282.592 146.762 283.755 153.447 281.375 157.012C277.867 162.267 264.331 160.863 264.331 160.863" stroke="#FFC200" stroke-width="10" stroke-linecap="square"/>
<path d="M147.309 164.751C161.727 164.835 162.361 185.467 162.169 195.892M158.112 167.036C158.112 167.036 163.085 163.549 169.841 164.332C185.498 166.145 182.974 181.077 185.23 194.467" stroke="#FFC200" stroke-width="10" stroke-linecap="square"/>
<path d="M175.33 163.831C175.33 163.831 179.484 160.644 185.061 159.759C192.499 158.579 198.524 162.676 201.312 169.818C205.983 181.782 203.826 185.798 208.692 193.396C211.125 197.195 215.825 197.735 215.825 197.735" stroke="#FFC200" stroke-width="10" stroke-linecap="square"/>
<path d="M200.46 110.774C194.988 105.77 187.355 106.032 181.264 110.366C175.174 114.7 173.683 126.246 180.111 131.939C185.763 136.946 195.483 134.758 199.651 131.777C203.819 128.796 206.623 116.409 200.46 110.774Z" stroke="#FFC200" stroke-width="12" stroke-linecap="square"/>
<path d="M125.513 90.5436C125.513 90.5436 140.28 95.0497 152.714 95.8901C162.5 96.5515 180.489 92.7558 180.489 92.7558M154.13 74.9379C154.13 74.9379 146.821 138.187 171.064 143.235" stroke="#FFC200" stroke-width="12" stroke-linecap="square"/>
<path d="M99.635 106.787C116.895 107.736 116.441 132.479 115.598 144.95M112.437 110.158C112.437 110.158 118.596 106.276 126.641 107.61C145.282 110.701 143.514 132.304 145.428 148.47" stroke="#FFC200" stroke-width="12" stroke-linecap="square"/>
<path d="M97.8711 129.928C90.4445 123.138 80.0848 123.494 71.8192 129.375C63.5535 135.257 61.5309 150.926 70.2545 158.653C77.9252 165.447 91.1159 162.478 96.7728 158.433C102.43 154.387 106.235 137.576 97.8711 129.928Z" stroke="#FFC200" stroke-width="12" stroke-linecap="square"/>
<path d="M22.8776 82.976C13.4637 85.6722 10.1228 90.4134 10.1228 90.4134M22.8776 82.976C25.4537 99.8983 26.6109 109.865 30.3851 127.247M22.8776 82.976C30.8051 80.7055 44.7553 79.0036 52.7754 79.4588C60.7955 79.914 65.1624 82.0365 68.8378 85.876C72.5132 89.7154 73.3367 101.333 71.4664 107.191C69.596 113.049 65.9433 120.673 57.0164 122.977C48.0895 125.282 39.9978 128.099 30.3851 127.247M39.273 167.968C39.273 167.968 33.9437 143.635 30.3851 127.247" stroke="#FFC200" stroke-width="12" stroke-linecap="square"/>
<path d="M26.7311 11.5931C50.6538 13.4109 49.3057 47.7314 47.7741 65.0128M44.3975 16.6422C44.3975 16.6422 53.0574 11.4341 64.1814 13.5188C89.9591 18.3496 84.0324 42.8424 86.2195 65.3301" stroke="#FFC200" stroke-width="12" stroke-linecap="square"/>
<path d="M72.7038 13.9363C72.7038 13.9363 80.6169 8.51899 89.9769 7.69934C102.46 6.60617 111.984 14.1073 115.782 26.2875C122.142 46.6893 118.096 53.1051 125.288 66.2828C128.884 72.8717 136.623 74.3149 136.623 74.3149" stroke="#FFC200" stroke-width="12" stroke-linecap="square"/>
<path d="M171.183 54.1027C171.183 54.1027 167.593 57.035 163.757 58.9045C156.946 62.2244 150.396 60.6891 145.192 58.5096C142.152 57.2363 135.984 51.8362 134.072 44.0692C132.117 36.1283 132.735 29.1557 137.92 23.2133C142.197 18.3127 151.484 17.8074 157.613 20.3173C166.619 24.0061 167.743 36.274 167.743 36.274C167.743 36.274 162.13 38.5735 155.847 40.2392C151.59 41.3679 146.75 40.9389 146.75 40.9389" stroke="#FFC200" stroke-width="12" stroke-linecap="square"/>
<path d="M183.006 26.7237C183.006 26.7237 183.527 45.547 186.344 51.8342C189.161 58.1215 196.262 61.7696 203.445 60.6811C209.722 59.73 213.851 58.1534 216.895 49.7981M216.895 49.7981C215.828 42.8034 214.584 38.5577 213.563 27.424M216.895 49.7981C217.817 54.6236 220.824 58.7714 220.824 58.7714" stroke="#FFC200" stroke-width="12" stroke-linecap="square"/>
</svg>
