<svg width="226" height="180" viewBox="0 0 226 180" fill="none" xmlns="http://www.w3.org/2000/svg">
<rect x="19" width="180" height="180" rx="24" fill="#00B11D"/>
<path d="M105.887 105.043L181.972 110.816" stroke="white" stroke-width="32.7017" stroke-linecap="round"/>
<path d="M141.043 145.972L146.816 69.887" stroke="white" stroke-width="32.7017" stroke-linecap="round"/>
<g filter="url(#filter0_d_213_71)">
<path d="M11.3425 75.709C35.2618 72.1475 41.6094 106.181 43.9675 123.509M29.835 76.7222C29.835 76.7222 37.1822 69.6673 48.5818 69.2294C74.9978 68.2146 74.6482 93.6128 81.8252 115.226" stroke="#FFC200" stroke-width="12" stroke-linecap="square"/>
<path d="M57.0514 67.7345C57.0514 67.7345 63.6179 60.6409 72.6344 57.7428C84.6595 53.8776 95.6972 59.121 102.152 70.2436C112.965 88.874 110.422 96.0845 120.437 107.429C125.445 113.101 133.374 112.789 133.374 112.789" stroke="#FFC200" stroke-width="12" stroke-linecap="square"/>
<path d="M162.823 85.1969C162.823 85.1969 159.95 88.8816 156.598 91.5764C150.646 96.3622 143.865 96.3176 138.263 95.3387C134.99 94.7668 127.721 90.8382 124.105 83.6318C120.408 76.2639 119.457 69.2725 123.225 62.2727C126.332 56.5002 135.348 53.9272 141.932 55.0241C151.609 56.6361 155.457 68.4425 155.457 68.4425C155.457 68.4425 150.453 71.9576 144.651 74.9994C140.719 77.0603 135.866 77.7208 135.866 77.7208" stroke="#FFC200" stroke-width="12" stroke-linecap="square"/>
<path d="M168.322 55.6438C168.322 55.6438 173.043 74.0282 177.217 79.5779C181.392 85.1276 189.186 87.1258 196.003 84.4502C201.96 82.112 205.666 79.6393 206.79 70.7466M206.79 70.7466C204.177 64.1104 202.006 60.2154 198.513 49.5008M206.79 70.7466C208.775 75.2833 212.658 78.6878 212.658 78.6878" stroke="#FFC200" stroke-width="12" stroke-linecap="square"/>
</g>
<defs>
<filter id="filter0_d_213_71" x="0.521494" y="41.9367" width="224.606" height="96.3323" filterUnits="userSpaceOnUse" color-interpolation-filters="sRGB">
<feFlood flood-opacity="0" result="BackgroundImageFix"/>
<feColorMatrix in="SourceAlpha" type="matrix" values="0 0 0 0 0 0 0 0 0 0 0 0 0 0 0 0 0 0 127 0" result="hardAlpha"/>
<feOffset dy="4.00279"/>
<feGaussianBlur stdDeviation="2.00139"/>
<feComposite in2="hardAlpha" operator="out"/>
<feColorMatrix type="matrix" values="0 0 0 0 0 0 0 0 0 0 0 0 0 0 0 0 0 0 0.25 0"/>
<feBlend mode="normal" in2="BackgroundImageFix" result="effect1_dropShadow_213_71"/>
<feBlend mode="normal" in="SourceGraphic" in2="effect1_dropShadow_213_71" result="shape"/>
</filter>
</defs>
</svg>
